<svg xmlns="http://www.w3.org/2000/svg" width="716.539" height="1000" viewBox="-52.715 -104 716.539 1000" xml:space="preserve"><path d="M199.27 895.549a26.734 26.734 0 0 1-9.934-1.846 23.1 23.1 0 0 1-7.833-5.093 21.769 21.769 0 0 1-5.157-8.023 31.02 31.02 0 0 1 0-21.271 24.906 24.906 0 0 1 5.221-8.151 23.792 23.792 0 0 1 7.897-5.094 26.412 26.412 0 0 1 9.806-1.846 29.468 29.468 0 0 1 12.163 2.482 19.114 19.114 0 0 1 8.662 7.896l-10.189 8.408a13.563 13.563 0 0 0-4.522-5.097 11.422 11.422 0 0 0-6.368-1.782c-1.448.008-2.877.31-4.202.894a10.95 10.95 0 0 0-3.567 2.61 12.097 12.097 0 0 0-2.42 4.392 19.162 19.162 0 0 0-.891 6.37 16.99 16.99 0 0 0 .955 5.922 11.826 11.826 0 0 0 2.484 4.392 9.52 9.52 0 0 0 3.693 2.614 11.59 11.59 0 0 0 10.634-.893 9.48 9.48 0 0 0 3.375-5.221H197.87v-9.681h25.09v2.546a31.918 31.918 0 0 1-1.846 11.146 23.346 23.346 0 0 1-4.522 7.959 20.271 20.271 0 0 1-7.579 4.905 27.474 27.474 0 0 1-9.743 1.462zM240.981 844.605h18.531l16.367 49.99h-14.266l-2.929-9.488h-17.258l-2.865 9.488h-14.137zm3.439 30.185h11.208l-5.667-18.466zM312.688 894.849h-6.942L293.9 859.952v34.896h-12.099v-50.243h19.104l8.408 25.472 8.467-25.472h19.107v49.99H324.85v-35.024zM347.713 894.849v-50.243h38.207l-2.482 11.207H361.02v8.788h21.141v10.125h-20.947v8.853h24.898v11.018zM392.922 859.952a14.028 14.028 0 0 1 5.16-11.463 21.654 21.654 0 0 1 13.883-4.265 31.243 31.243 0 0 1 12.227 2.291 22.204 22.204 0 0 1 9.045 6.814l-8.664 8.916a17.468 17.468 0 0 0-5.285-5.033 13.838 13.838 0 0 0-7.703-2.102 6.848 6.848 0 0 0-3.824.957 3.124 3.124 0 0 0-.123 5.032 12.748 12.748 0 0 0 4.584 2.038l7.131 2.162a25.131 25.131 0 0 1 11.463 6.37 11.899 11.899 0 0 1 3.182 8.087 15.514 15.514 0 0 1-1.273 6.366 13.107 13.107 0 0 1-3.883 5.097 18.734 18.734 0 0 1-6.369 3.504 30.756 30.756 0 0 1-9.17 1.272 31.818 31.818 0 0 1-12.736-2.485 21.27 21.27 0 0 1-8.979-6.875l8.471-8.66a21.735 21.735 0 0 0 5.666 5.349 15.536 15.536 0 0 0 8.279 2.099 7.612 7.612 0 0 0 4.84-1.209 3.261 3.261 0 0 0 1.467-2.547 2.997 2.997 0 0 0-1.213-2.482 9.573 9.573 0 0 0-3.629-1.785l-8.98-2.863a20.713 20.713 0 0 1-10.125-5.925 12.75 12.75 0 0 1-3.442-8.66z" style="fill:#000b6c;fill-opacity:1" transform="matrix(1.00056 0 0 1.00056 .03 -.504)"/><path d="M520.894 775.59c5.853 0 10.874-4.88 10.874-10.89 0-5.855-5.022-10.894-10.874-10.894-6.013 0-10.913 5.038-10.913 10.894-.001 6.01 4.9 10.89 10.913 10.89m-76.565-26.498c5.682 18.204 17.053 26.66 32.494 26.66 16.763 0 30.709-13.496 30.709-31.377 0-12.515-5.52-22.104-17.22-30.72l-12.204-9.107c-7.303-5.367-10.872-10.894-10.872-17.07 0-5.365 3.57-10.08 9.422-10.08 7.635 0 11.7 6.02 14.315 15.442l15.774-9.422c-5.355-16.747-15.443-23.738-29.262-23.738-15.604 0-28.467 12.193-28.467 29.099 0 10.078 3.9 20.32 15.437 28.936l13.529 10.085c6.809 5.195 11.37 10.885 11.37 18.037 0 6.506-4.896 12.195-12.035 12.195-9.254 0-14.48-6.829-17.72-18.208zm-39.345 9.266c-10.584 0-17.225-13.33-17.225-40.643 0-27.312 6.641-40.804 17.225-40.804 10.541 0 17.223 13.492 17.223 40.804 0 27.313-6.682 40.643-17.223 40.643m0 17.718c22.246 0 35.773-19.186 35.773-58.36 0-39.184-13.694-58.523-35.773-58.523-22.121 0-35.774 19.34-35.774 58.522 0 39.175 13.486 58.361 35.774 58.361m-60.801-80.145c0 10.566-7.178 17.553-19.502 21.946l-2.781.973v-40.479c14.774.657 22.283 7.481 22.283 17.56m2.12 78.682h20.292L346.59 726.33c9.756-6.985 15.775-16.746 15.775-30.4 0-22.107-17.225-35.114-41.586-35.114h-17.264v113.797h18.387v-36.9l2.117-.655c2.28-.651 4.398-1.463 6.516-2.272zm-91.387-49.254c11.87-2.927 21.455 1.783 21.455 12.024 0 11.709-11.201 20-26.975 20v-30.727zm14.318-33.006c0 7.967-6.018 14.467-16.893 16.746l-2.944.649v-31.54c12.368.324 19.837 5.69 19.837 14.145m25.359 44.868c0-12.356-6.682-21.778-18.056-25.682 6.684-5.689 10.583-13.171 10.583-20.649 0-18.367-15.77-30.072-40.338-30.072h-15.604v113.796h15.936c28.805-.001 47.479-15.77 47.479-37.393m-118.189-41.29c0 10.566-7.152 17.553-19.51 21.946l-2.76.973v-40.479c14.793.657 22.27 7.481 22.27 17.56m2.113 78.682h20.333l-20.004-48.282c9.754-6.985 15.773-16.746 15.773-30.4 0-22.107-17.237-35.114-41.623-35.114h-17.232v113.797h18.37v-36.9l2.117-.655c2.273-.651 4.39-1.463 6.5-2.272zm-105.175 0h54.133v-17.56H91.71v-32.189h26.82V706.82H91.71v-28.45h32.188l3.577-17.555H73.342Zm-77.866 0h17.885v-70.715l29.587 70.715H60.99V660.816H43.109v70.715l-29.59-70.715H-4.524Zm-27.96-78.682c0 10.566-7.153 17.553-19.511 21.946l-2.763.973v-40.479c14.796.657 22.273 7.481 22.273 17.56m2.115 78.682h20.317L-30.05 726.33c9.755-6.985 15.77-16.746 15.77-30.4 0-22.107-17.23-35.114-41.615-35.114h-17.232v113.797h18.367v-36.9l2.116-.655c2.277-.651 4.39-1.463 6.5-2.272zm-93.64-38.855 9.27-48.6 9.265 48.6zm-25.681 38.855h18.205l4.061-21.299h25.362l4.07 21.299h18.853l-22.923-113.797h-24.71zm-79.5 0h18.536l13.812-72.343 13.821 72.343h18.533l23.408-113.797h-18.366l-14.474 73.97-13.973-73.97h-17.237l-13.978 73.97-14.305-73.97h-19.021Z" style="opacity:1;fill:#000b6c;fill-opacity:1;stroke:none;stroke-width:1.09363782" transform="matrix(.91372 0 0 .91372 177.939 100.603)"/><g style="opacity:1"><path style="fill:#0541a8;fill-opacity:1;stroke:none" d="M1373.205-155.41c-.771-3.075-1.538-4.228-3.071-4.61l-55.344-14.607-7.69-31.514c-.381-1.538-.765-2.69-2.308-3.074l-56.877-15.374-6.92-29.978c-.383-2.307-1.537-3.458-3.074-3.845l-147.765-27.4a20.074 20.074 0 0 0-7.323 0l-147.77 27.4c-1.515.387-2.693 1.538-3.071 3.845l-6.907 29.978-56.885 15.374c-1.556.383-1.935 1.536-2.313 3.074l-7.667 31.514-55.365 14.606c-1.516.384-2.315 1.537-3.072 4.61-4.595 23.828-6.906 49.196-6.906 74.56 0 221.374 115.283 413.523 287.47 528.083 2.309 1.52 4.613 3.076 6.15 3.076 1.539 0 3.845-1.557 6.149-3.076 172.179-114.56 287.478-306.709 287.478-528.084 0-25.362-2.308-50.73-6.919-74.559" transform="matrix(.99844 0 0 .99844 -779.488 181.704)"/><path style="fill:#fff;fill-opacity:1;stroke:none" d="M1064.978 345.382c0 1.557-1.534 2.313-3.068.796-42.27-48.42-70.721-107.619-89.925-172.16l-29.18 18.444c-7.7 5.38-13.852 3.076-18.44-5.378-39.2-69.163-64.551-182.9-66.867-262.82 0-3.846.764-6.152 3.832-9.992 9.983-12.296 22.279-24.59 33.812-35.352 2.316-2.305 4.633-.767 4.633 3.072 0 98.37 16.883 189.82 43.79 249.76 2.317 4.61 4.593 4.61 7.668 2.307l8.46-5.38c-16.127-71.47-25.351-166.762-23.035-276.657 0-3.839.76-5.377 3.072-6.913 8.428-5.38 23.796-13.833 36.888-19.213 3.832-1.538 4.592-.77 4.592 2.307-2.316 159.843 10.776 270.506 39.204 358.881.763 2.303 3.076 1.537 3.076-.767-1.542-32.278-1.542-60.712-1.542-95.295l-1.534-275.884c0-3.075.763-4.612 3.839-5.38 13.066-3.075 24.592-5.378 38.426-6.916 1.538 0 2.3.767 2.3 2.303v540.237zM1234.048-87.265c0-30.742-35.354-56.1-82.229-59.175V14.175c59.175-34.579 82.229-69.164 82.229-101.44M1227.9 28.008c-16.14 0-30.74 6.148-76.081 38.426v173.682c78.39-87.613 100.676-147.554 100.676-178.296 0-21.516-9.995-33.812-24.595-33.812m-116.812 318.17c-1.533 1.517-3.071.761-3.071-.796v-540.236c0-1.537.766-2.303 2.304-2.303 102.978 6.915 169.07 49.951 169.07 112.195 0 26.132-9.99 51.492-26.896 69.934 33.809 9.222 46.875 34.58 46.875 68.396 0 59.942-43.803 159.076-188.282 292.81" transform="matrix(.99844 0 0 .99844 -779.488 181.704)"/></g></svg>